<svg xmlns="http://www.w3.org/2000/svg" xmlns:xlink="http://www.w3.org/1999/xlink" width="500" zoomAndPan="magnify" viewBox="0 0 375 374.999991" height="500" preserveAspectRatio="xMidYMid meet" version="1.0"><path fill="#378d11" d="M 26.121094 359.035156 C 35.710938 369.648438 50.375 370.578125 73.671875 310.910156 C 85.425781 280.808594 114.953125 301.160156 125.890625 284.140625 C 133.859375 271.738281 126.875 254.320312 111.027344 246.609375 C 82.757812 232.84375 58.839844 241.238281 54.179688 267.910156 C 45.90625 315.246094 0 330.117188 26.121094 359.035156 Z M 26.121094 359.035156 " fill-opacity="1" fill-rule="nonzero"/><path fill="#378d11" d="M 136.742188 247.15625 C 131.515625 252.378906 130.234375 259.566406 133.875 263.207031 C 137.515625 266.847656 144.703125 265.566406 149.925781 260.339844 C 155.152344 255.117188 156.4375 247.929688 152.792969 244.285156 C 149.152344 240.644531 141.964844 241.929688 136.742188 247.15625 Z M 136.742188 247.15625 " fill-opacity="1" fill-rule="nonzero"/><path fill="#378d11" d="M 130.003906 242.195312 C 126.601562 245.597656 122.171875 246.6875 120.113281 244.632812 C 118.054688 242.574219 119.148438 238.144531 122.550781 234.742188 C 125.953125 231.335938 130.382812 230.246094 132.441406 232.304688 C 134.5 234.363281 133.40625 238.789062 130.003906 242.195312 Z M 130.003906 242.195312 " fill-opacity="1" fill-rule="nonzero"/><path fill="#378d11" d="M 113.199219 235.46875 C 110.296875 238.367188 106.523438 239.296875 104.769531 237.542969 C 103.015625 235.789062 103.945312 232.015625 106.847656 229.117188 C 109.746094 226.214844 113.519531 225.285156 115.273438 227.039062 C 117.027344 228.792969 116.097656 232.566406 113.199219 235.46875 Z M 113.199219 235.46875 " fill-opacity="1" fill-rule="nonzero"/><path fill="#378d11" d="M 96.671875 232.015625 C 94.097656 234.589844 90.75 235.414062 89.191406 233.859375 C 87.636719 232.300781 88.460938 228.953125 91.035156 226.378906 C 93.609375 223.804688 96.960938 222.980469 98.515625 224.535156 C 100.074219 226.089844 99.246094 229.441406 96.671875 232.015625 Z M 96.671875 232.015625 " fill-opacity="1" fill-rule="nonzero"/><path fill="#378d11" d="M 81.570312 233.0625 C 79.277344 235.359375 76.046875 235.847656 74.359375 234.160156 C 72.667969 232.46875 73.160156 229.238281 75.453125 226.945312 C 77.746094 224.652344 80.976562 224.160156 82.664062 225.851562 C 84.355469 227.542969 83.863281 230.769531 81.570312 233.0625 Z M 81.570312 233.0625 " fill-opacity="1" fill-rule="nonzero"/><path fill="#378d11" d="M 244.683594 140.472656 C 254.273438 151.085938 268.9375 152.015625 292.238281 92.347656 C 303.988281 62.246094 333.515625 82.601562 344.453125 65.578125 C 352.421875 53.175781 345.4375 35.757812 329.589844 28.046875 C 301.320312 14.28125 277.40625 22.675781 272.742188 49.347656 C 264.46875 96.6875 218.5625 111.554688 244.683594 140.472656 Z M 244.683594 140.472656 " fill-opacity="1" fill-rule="nonzero"/><path fill="#378d11" d="M 355.304688 28.589844 C 350.078125 33.816406 348.792969 41.003906 352.4375 44.644531 C 356.078125 48.285156 363.265625 47.003906 368.488281 41.777344 C 373.714844 36.554688 375 29.367188 371.355469 25.726562 C 367.714844 22.082031 360.527344 23.367188 355.304688 28.589844 Z M 355.304688 28.589844 " fill-opacity="1" fill-rule="nonzero"/><path fill="#378d11" d="M 348.566406 23.632812 C 345.164062 27.035156 340.734375 28.128906 338.675781 26.070312 C 336.617188 24.011719 337.710938 19.582031 341.113281 16.179688 C 344.515625 12.777344 348.945312 11.683594 351.003906 13.742188 C 353.058594 15.800781 351.96875 20.230469 348.566406 23.632812 Z M 348.566406 23.632812 " fill-opacity="1" fill-rule="nonzero"/><path fill="#378d11" d="M 331.761719 16.90625 C 328.859375 19.804688 325.085938 20.734375 323.332031 18.980469 C 321.578125 17.226562 322.507812 13.457031 325.410156 10.554688 C 328.308594 7.65625 332.082031 6.722656 333.835938 8.476562 C 335.589844 10.230469 334.660156 14.003906 331.761719 16.90625 Z M 331.761719 16.90625 " fill-opacity="1" fill-rule="nonzero"/><path fill="#378d11" d="M 315.234375 13.453125 C 312.664062 16.027344 309.3125 16.851562 307.753906 15.296875 C 306.199219 13.738281 307.023438 10.390625 309.597656 7.816406 C 312.171875 5.242188 315.519531 4.417969 317.078125 5.972656 C 318.632812 7.53125 317.808594 10.878906 315.234375 13.453125 Z M 315.234375 13.453125 " fill-opacity="1" fill-rule="nonzero"/><path fill="#378d11" d="M 300.132812 14.503906 C 297.839844 16.796875 294.609375 17.285156 292.917969 15.597656 C 291.230469 13.90625 291.722656 10.679688 294.015625 8.386719 C 296.308594 6.089844 299.535156 5.601562 301.226562 7.289062 C 302.917969 8.980469 302.425781 12.210938 300.132812 14.503906 Z M 300.132812 14.503906 " fill-opacity="1" fill-rule="nonzero"/><path fill="#378d11" d="M 185.28125 299.628906 C 174.667969 290.042969 173.734375 275.378906 233.40625 252.078125 C 263.507812 240.324219 243.152344 210.800781 260.175781 199.863281 C 272.574219 191.894531 289.992188 198.878906 297.707031 214.726562 C 311.46875 242.996094 303.078125 266.910156 276.40625 271.570312 C 229.066406 279.847656 214.199219 325.75 185.28125 299.628906 Z M 185.28125 299.628906 " fill-opacity="1" fill-rule="nonzero"/><path fill="#378d11" d="M 297.160156 189.011719 C 291.9375 194.238281 284.75 195.519531 281.109375 191.878906 C 277.46875 188.238281 278.75 181.050781 283.972656 175.824219 C 289.199219 170.601562 296.386719 169.316406 300.027344 172.957031 C 303.667969 176.601562 302.386719 183.785156 297.160156 189.011719 Z M 297.160156 189.011719 " fill-opacity="1" fill-rule="nonzero"/><path fill="#378d11" d="M 302.121094 195.75 C 298.714844 199.152344 297.625 203.582031 299.683594 205.640625 C 301.742188 207.699219 306.167969 206.605469 309.574219 203.203125 C 312.976562 199.796875 314.070312 195.371094 312.011719 193.3125 C 309.953125 191.253906 305.523438 192.34375 302.121094 195.75 Z M 302.121094 195.75 " fill-opacity="1" fill-rule="nonzero"/><path fill="#378d11" d="M 308.847656 212.554688 C 305.945312 215.453125 305.019531 219.230469 306.769531 220.984375 C 308.523438 222.734375 312.296875 221.804688 315.199219 218.90625 C 318.097656 216.003906 319.027344 212.234375 317.273438 210.476562 C 315.519531 208.726562 311.746094 209.652344 308.847656 212.554688 Z M 308.847656 212.554688 " fill-opacity="1" fill-rule="nonzero"/><path fill="#378d11" d="M 312.300781 229.078125 C 309.726562 231.65625 308.902344 235.003906 310.457031 236.558594 C 312.011719 238.117188 315.363281 237.292969 317.9375 234.71875 C 320.511719 232.140625 321.335938 228.792969 319.78125 227.234375 C 318.222656 225.679688 314.875 226.507812 312.300781 229.078125 Z M 312.300781 229.078125 " fill-opacity="1" fill-rule="nonzero"/><path fill="#378d11" d="M 311.25 244.183594 C 308.957031 246.476562 308.464844 249.703125 310.15625 251.394531 C 311.847656 253.085938 315.074219 252.59375 317.367188 250.300781 C 319.660156 248.007812 320.152344 244.777344 318.460938 243.085938 C 316.773438 241.398438 313.542969 241.886719 311.25 244.183594 Z M 311.25 244.183594 " fill-opacity="1" fill-rule="nonzero"/></svg>